<svg xmlns="http://www.w3.org/2000/svg" xmlns:xlink="http://www.w3.org/1999/xlink" width="500" zoomAndPan="magnify" viewBox="0 0 375 374.999991" height="500" preserveAspectRatio="xMidYMid meet" version="1.0"><defs><clipPath id="id1"><path d="M 22.054688 22.054688 L 352.804688 22.054688 L 352.804688 352.804688 L 22.054688 352.804688 Z M 22.054688 22.054688 " clip-rule="nonzero"/></clipPath></defs><rect x="-37.5" width="450" fill="#ffffff" y="-37.499999" height="449.999989" fill-opacity="1"/><rect x="-37.5" width="450" fill="#ffffff" y="-37.499999" height="449.999989" fill-opacity="1"/><rect x="-37.5" width="450" fill="#ffffff" y="-37.499999" height="449.999989" fill-opacity="1"/><g clip-path="url(#id1)"><path fill="#f987a8" d="M 269.855469 22.054688 L 104.742188 22.054688 C 59.332031 22.054688 22.054688 59.332031 22.054688 105.007812 L 22.054688 270.117188 C 22.054688 315.53125 59.332031 352.804688 104.742188 352.804688 L 269.855469 352.804688 C 315.53125 352.804688 352.804688 315.53125 352.804688 269.855469 L 352.804688 105.007812 C 352.804688 59.332031 315.53125 22.054688 269.855469 22.054688 Z M 231.792969 187.429688 L 200.554688 187.429688 L 200.554688 289.804688 L 161.179688 289.804688 L 161.179688 187.429688 L 140.179688 187.429688 L 140.179688 145.429688 L 158.554688 145.429688 L 158.554688 127.582031 C 158.554688 110.78125 166.957031 84.269531 202.394531 84.269531 L 234.679688 84.269531 L 234.679688 119.179688 L 211.84375 119.179688 C 208.167969 119.179688 203.179688 121.542969 203.179688 129.679688 L 203.179688 145.429688 L 235.46875 145.429688 Z M 231.792969 187.429688 " fill-opacity="1" fill-rule="nonzero"/></g></svg>