<svg xmlns="http://www.w3.org/2000/svg" xmlns:xlink="http://www.w3.org/1999/xlink" width="1920" zoomAndPan="magnify" viewBox="0 0 1440 809.999993" height="1080" preserveAspectRatio="xMidYMid meet" version="1.0"><defs><clipPath id="id1"><path d="M 1248.417969 528 L 1440 528 L 1440 780 L 1248.417969 780 Z M 1248.417969 528 " clip-rule="nonzero"/></clipPath><clipPath id="id2"><path d="M 1226 481.347656 L 1270 481.347656 L 1270 556 L 1226 556 Z M 1226 481.347656 " clip-rule="nonzero"/></clipPath><clipPath id="id3"><path d="M 1190.539062 578 L 1301 578 L 1301 670 L 1190.539062 670 Z M 1190.539062 578 " clip-rule="nonzero"/></clipPath><clipPath id="id4"><path d="M 1248.417969 759 L 1338.851562 759 L 1338.851562 805.246094 L 1248.417969 805.246094 Z M 1248.417969 759 " clip-rule="nonzero"/></clipPath><clipPath id="id5"><path d="M 44.855469 501.832031 L 189.605469 501.832031 L 189.605469 810 L 44.855469 810 Z M 44.855469 501.832031 " clip-rule="nonzero"/></clipPath></defs><rect x="-144" width="1728" fill="#ffffff" y="-80.999999" height="971.999992" fill-opacity="1"/><rect x="-144" width="1728" fill="#ffffff" y="-80.999999" height="971.999992" fill-opacity="1"/><rect x="-144" width="1728" fill="#ffd9de" y="-80.999999" height="971.999992" fill-opacity="1"/><g clip-path="url(#id1)"><path fill="#fff1df" d="M 1445.976562 779.792969 C 1420.613281 767.996094 1395.433594 755.324219 1372.453125 739.054688 C 1349.535156 722.582031 1330.023438 702.253906 1310.746094 681.972656 C 1301.265625 671.703125 1291.246094 661.789062 1283.449219 649.8125 C 1275.660156 637.816406 1270.714844 624.382812 1266.601562 610.992188 C 1258.179688 584.210938 1252.078125 556.707031 1248.5 528.925781 L 1248.855469 528.867188 C 1254.636719 556.257812 1261.6875 583.28125 1270.152344 609.878906 C 1274.460938 623.101562 1279.039062 636.292969 1286.316406 647.988281 C 1293.648438 659.625 1303.257812 669.925781 1312.230469 680.644531 C 1321.359375 691.226562 1330.769531 701.59375 1341.085938 711.027344 C 1351.328125 720.550781 1362.550781 728.898438 1374.164062 736.597656 C 1397.210938 752.261719 1421.855469 765.496094 1446.144531 779.464844 L 1445.976562 779.792969 " fill-opacity="1" fill-rule="nonzero"/></g><g clip-path="url(#id2)"><path fill="#fff1df" d="M 1262.929688 549.890625 C 1260.683594 552.667969 1257.714844 555.351562 1253.800781 555.722656 C 1249.816406 555.921875 1246.394531 553.433594 1243.628906 551.074219 C 1240.828125 548.601562 1238.386719 545.859375 1236.023438 543.109375 C 1233.578125 540.296875 1231.460938 537.160156 1229.765625 533.742188 C 1228.140625 530.3125 1226.996094 526.496094 1226.9375 522.539062 C 1226.855469 518.574219 1227.914062 514.800781 1229.144531 511.324219 C 1231.671875 504.417969 1234.851562 497.820312 1238.597656 491.550781 C 1239.515625 489.984375 1240.464844 488.414062 1241.4375 486.890625 L 1242.933594 484.601562 C 1243.457031 483.867188 1243.742188 483.003906 1244.757812 482.257812 C 1245.847656 481.523438 1247.230469 481.988281 1247.980469 482.582031 C 1248.796875 483.175781 1249.417969 483.964844 1249.929688 484.714844 C 1250.976562 486.195312 1252.078125 487.636719 1253.082031 489.164062 C 1257.222656 495.136719 1261.121094 501.355469 1264.171875 508.035156 C 1267.097656 514.703125 1269.527344 521.835938 1269.683594 529.351562 C 1269.796875 533.0625 1269.316406 536.820312 1268.203125 540.339844 C 1267.027344 543.828125 1265.261719 547.089844 1262.929688 549.890625 Z M 1262.648438 549.660156 C 1264.910156 546.878906 1266.578125 543.585938 1267.28125 540.101562 C 1267.945312 536.597656 1267.972656 533.023438 1267.421875 529.546875 C 1266.320312 522.597656 1263.847656 515.886719 1261.402344 509.179688 C 1258.902344 502.511719 1255.992188 495.871094 1252.109375 489.8125 C 1251.128906 488.300781 1250.128906 486.804688 1249.039062 485.378906 C 1248.105469 484.007812 1246.484375 482.582031 1245.464844 483.316406 C 1244.984375 483.640625 1244.546875 484.542969 1244.082031 485.308594 L 1242.792969 487.667969 C 1241.945312 489.261719 1241.125 490.859375 1240.351562 492.484375 C 1237.269531 498.980469 1234.613281 505.660156 1232.378906 512.414062 C 1231.292969 515.773438 1230.53125 519.136719 1230.699219 522.429688 C 1230.878906 525.734375 1231.800781 529.011719 1233.257812 532.089844 C 1234.652344 535.210938 1236.617188 538.121094 1238.738281 540.917969 C 1240.957031 543.769531 1243.019531 546.726562 1245.308594 549.378906 C 1247.597656 551.964844 1250.339844 554.464844 1253.785156 554.707031 C 1257.261719 554.847656 1260.414062 552.375 1262.648438 549.660156 " fill-opacity="1" fill-rule="nonzero"/></g><path fill="#fff1df" d="M 1247.1875 579.605469 C 1244.050781 575.640625 1241.226562 571.457031 1238.386719 567.320312 C 1237.015625 565.257812 1235.574219 563.308594 1233.890625 561.769531 C 1232.25 560.226562 1230.191406 559.292969 1227.929688 558.417969 C 1225.652344 557.558594 1223.195312 556.753906 1220.847656 555.453125 C 1218.519531 554.152344 1216.496094 552.527344 1214.5625 550.917969 C 1210.789062 547.699219 1206.621094 544.4375 1201.714844 544.347656 L 1202.183594 543.222656 L 1209.445312 549.296875 C 1211.875 551.355469 1214.222656 553.757812 1215.917969 556.667969 C 1217.640625 559.480469 1218.773438 562.457031 1220.285156 565.015625 C 1221.78125 567.613281 1223.589844 569.59375 1226.0625 570.933594 C 1228.535156 572.261719 1231.503906 573.195312 1234.496094 574.253906 L 1243.359375 577.515625 C 1246.3125 578.574219 1249.238281 579.777344 1252.160156 580.9375 C 1253.644531 581.515625 1255 582.136719 1256.414062 582.25 C 1257.105469 582.308594 1257.882812 582.152344 1258.707031 582.09375 C 1259.496094 582.019531 1260.527344 582.121094 1261.121094 582.8125 L 1260.878906 583.082031 C 1259.609375 582.277344 1258.179688 583.324219 1256.460938 583.492188 C 1254.691406 583.6875 1253.050781 583.167969 1251.554688 582.785156 C 1248.5 581.996094 1245.4375 581.234375 1242.425781 580.34375 L 1233.355469 577.730469 C 1230.386719 576.765625 1227.238281 576.019531 1224.183594 574.3125 C 1221.03125 572.683594 1218.628906 569.652344 1217.160156 566.738281 C 1215.636719 563.785156 1214.5625 560.835938 1213.21875 558.167969 C 1210.546875 552.925781 1205.730469 548.617188 1201.308594 544.183594 L 1200.050781 542.925781 L 1201.773438 543.050781 C 1207.199219 543.433594 1211.367188 546.933594 1215.550781 549.578125 C 1217.65625 550.933594 1219.773438 552.230469 1221.964844 553.121094 C 1224.171875 553.984375 1226.570312 554.535156 1229.03125 555.394531 C 1231.460938 556.242188 1234.058594 557.515625 1236.039062 559.507812 C 1238.03125 561.429688 1239.390625 563.730469 1240.648438 565.933594 C 1243.035156 570.386719 1245.40625 574.804688 1247.5 579.425781 L 1247.1875 579.605469 " fill-opacity="1" fill-rule="nonzero"/><path fill="#fff1df" d="M 1309.363281 595.128906 C 1316.894531 594.285156 1324.464844 593.410156 1331.476562 590.933594 C 1334.96875 589.707031 1338.246094 588.011719 1341.226562 585.949219 C 1344.179688 583.828125 1346.777344 581.234375 1348.941406 578.292969 C 1353.265625 572.386719 1356.257812 565.554688 1358.183594 558.351562 C 1360.1875 551.160156 1361.304688 543.660156 1362.269531 536.144531 L 1363.210938 536.863281 C 1350.339844 541.667969 1338.355469 548.773438 1327.632812 557.277344 C 1324.949219 559.382812 1322.375 561.640625 1319.789062 563.886719 C 1317.230469 566.160156 1314.703125 568.4375 1312.683594 570.992188 C 1310.617188 573.535156 1309.246094 576.328125 1309.023438 579.425781 C 1308.710938 582.53125 1309.460938 585.808594 1309.742188 589.4375 C 1309.882812 591.246094 1309.871094 593.167969 1309.492188 595.089844 C 1309.082031 597.011719 1308.484375 598.632812 1307.824219 600.316406 C 1306.480469 603.632812 1304.894531 606.753906 1303.371094 609.792969 C 1301.859375 612.859375 1300.460938 615.898438 1299.570312 619.03125 C 1298.679688 622.226562 1297.933594 625.570312 1297.410156 628.902344 C 1295.371094 642.269531 1296.234375 656.179688 1300.53125 669.273438 L 1300.191406 669.398438 C 1294.496094 656.773438 1292.5625 642.394531 1294.230469 628.464844 C 1294.636719 624.960938 1295.230469 621.546875 1296.066406 618.070312 C 1297 614.554688 1298.453125 611.289062 1299.9375 608.140625 C 1301.40625 604.992188 1303.003906 601.96875 1304.234375 598.886719 C 1304.855469 597.378906 1305.40625 595.75 1305.746094 594.296875 C 1306.070312 592.84375 1306.125 591.289062 1306.042969 589.664062 C 1305.886719 586.429688 1305.136719 582.871094 1305.5625 579.085938 C 1305.917969 575.253906 1307.824219 571.640625 1310.195312 568.941406 C 1312.582031 566.175781 1315.296875 563.941406 1317.96875 561.738281 C 1320.667969 559.535156 1323.464844 557.472656 1326.304688 555.484375 C 1337.695312 547.511719 1349.972656 541.03125 1362.691406 535.566406 L 1363.738281 535.128906 L 1363.640625 536.285156 C 1363.003906 543.84375 1362.519531 551.46875 1360.882812 559.011719 C 1359.214844 566.511719 1356.332031 574.015625 1351.414062 580.1875 C 1346.636719 586.429688 1339.714844 591.164062 1332.183594 593.125 C 1324.695312 595.3125 1316.964844 595.597656 1309.390625 595.5 L 1309.363281 595.128906 " fill-opacity="1" fill-rule="nonzero"/><path fill="#fff1df" d="M 1304.304688 601.09375 C 1304.742188 597.109375 1303.820312 593.296875 1302.300781 589.859375 C 1300.773438 586.386719 1298.425781 583.351562 1295.925781 580.382812 C 1293.464844 577.375 1290.808594 574.367188 1288.011719 571.527344 C 1285.183594 568.703125 1282.175781 566.074219 1279.054688 563.605469 L 1280.226562 562.894531 C 1281.410156 567.417969 1282.726562 571.894531 1283.800781 576.429688 C 1284.816406 580.976562 1285.949219 585.496094 1286.824219 590.074219 C 1287.742188 594.59375 1288.503906 599.042969 1290.328125 603.070312 C 1292.152344 607.023438 1294.949219 610.726562 1299.160156 612.746094 L 1299.0625 613.082031 C 1294.273438 612.265625 1290.21875 608.636719 1287.726562 604.441406 C 1285.199219 600.175781 1283.941406 595.402344 1283.035156 590.824219 C 1282.101562 586.257812 1281.441406 581.640625 1280.648438 577.050781 C 1279.914062 572.460938 1279.417969 567.800781 1278.796875 563.179688 L 1278.5 561.003906 L 1279.988281 562.472656 C 1282.839844 565.3125 1285.808594 567.996094 1288.972656 570.46875 C 1292.195312 572.898438 1295.457031 575.285156 1298.3125 578.277344 C 1301.109375 581.273438 1303.484375 584.863281 1304.828125 588.886719 C 1306.15625 592.871094 1306.3125 597.390625 1304.65625 601.175781 L 1304.304688 601.09375 " fill-opacity="1" fill-rule="nonzero"/><path fill="#fff1df" d="M 1294.324219 629.496094 C 1298.667969 631.363281 1303.273438 630.601562 1307.851562 630.019531 C 1312.441406 629.414062 1316.933594 628.4375 1321.445312 627.421875 C 1325.953125 626.449219 1330.515625 625.289062 1334.796875 623.425781 C 1339.078125 621.53125 1343.019531 618.945312 1346.621094 615.996094 L 1347.035156 617.757812 C 1342.21875 617.292969 1337.570312 616.023438 1333.046875 614.824219 C 1328.535156 613.636719 1324.058594 612.675781 1319.648438 612.589844 C 1315.265625 612.492188 1310.847656 613.4375 1306.820312 615.414062 C 1302.761719 617.363281 1299.105469 620.261719 1296.164062 623.945312 L 1295.851562 623.761719 C 1297.816406 619.371094 1301.25 615.609375 1305.433594 612.957031 C 1309.617188 610.34375 1314.605469 608.71875 1319.664062 608.734375 C 1324.722656 608.734375 1329.484375 610.117188 1334.003906 611.558594 C 1338.542969 612.984375 1342.863281 614.695312 1347.359375 615.824219 L 1349.703125 616.402344 L 1347.769531 617.589844 C 1343.699219 620.105469 1339.519531 622.324219 1335.308594 624.484375 C 1331.082031 626.628906 1326.8125 628.804688 1322.25 630.332031 C 1317.671875 631.785156 1312.894531 632.578125 1308.105469 632.816406 C 1303.484375 633.03125 1298.015625 632.972656 1294.128906 629.808594 L 1294.324219 629.496094 " fill-opacity="1" fill-rule="nonzero"/><path fill="#fff1df" d="M 1344.054688 562.5 C 1342.566406 566.496094 1339.542969 569.691406 1336.125 571.921875 C 1334.34375 572.996094 1332.351562 573.675781 1330.628906 574.734375 C 1328.875 575.765625 1327.335938 577.0625 1325.867188 578.476562 C 1322.984375 581.34375 1319.988281 583.871094 1317.273438 586.613281 C 1314.421875 589.226562 1311.820312 591.941406 1309.246094 595.203125 L 1308.910156 595.0625 C 1309.347656 590.824219 1311.691406 586.9375 1314.546875 583.886719 C 1317.527344 580.921875 1320.988281 578.5625 1324.738281 576.855469 C 1326.570312 575.949219 1328.378906 575.015625 1329.964844 573.757812 C 1331.558594 572.527344 1332.863281 570.90625 1334.300781 569.535156 C 1337.28125 566.894531 1340.351562 564.691406 1343.769531 562.273438 L 1344.054688 562.5 " fill-opacity="1" fill-rule="nonzero"/><path fill="#fff1df" d="M 1290.03125 584.722656 C 1291.742188 586.347656 1292.714844 587.898438 1293.324219 589.71875 C 1293.550781 590.667969 1293.539062 591.808594 1293.988281 592.703125 C 1294.414062 593.605469 1295.207031 594.253906 1296.066406 594.832031 C 1297.859375 595.921875 1299.386719 597.304688 1300.632812 599.144531 C 1301.703125 601.003906 1302.367188 603.648438 1301.238281 605.8125 L 1300.882812 605.824219 C 1299.625 603.917969 1298.550781 602.746094 1297.40625 601.277344 C 1296.421875 599.75 1295.246094 598.128906 1294.523438 596.078125 C 1294.117188 595.074219 1293.691406 594.128906 1293.011719 593.335938 C 1292.351562 592.546875 1291.316406 591.941406 1290.640625 591.089844 C 1289.425781 589.324219 1288.972656 587.082031 1289.679688 584.804688 L 1290.03125 584.722656 " fill-opacity="1" fill-rule="nonzero"/><path fill="#fff1df" d="M 1328.253906 619.550781 C 1325.527344 621.109375 1322.789062 621.8125 1319.933594 621.96875 C 1318.492188 621.96875 1316.992188 621.632812 1315.5625 621.773438 C 1314.125 621.886719 1312.769531 622.378906 1311.425781 622.972656 C 1308.785156 624.242188 1306.058594 625.0625 1303.316406 625.769531 C 1300.53125 626.332031 1297.988281 626.613281 1295.007812 627.238281 L 1294.808594 626.941406 C 1296.574219 624.285156 1299.625 622.886719 1302.367188 622.039062 C 1305.191406 621.332031 1308.0625 620.894531 1311.03125 621.023438 C 1312.515625 621.050781 1313.96875 620.996094 1315.355469 620.613281 C 1316.753906 620.261719 1318.082031 619.441406 1319.46875 619.003906 C 1322.292969 618.285156 1325.230469 618.269531 1328.214844 619.203125 L 1328.253906 619.550781 " fill-opacity="1" fill-rule="nonzero"/><g clip-path="url(#id3)"><path fill="#fff1df" d="M 1244.703125 646.574219 C 1242.554688 639.582031 1240.078125 632.734375 1237.128906 626.136719 C 1234.089844 619.640625 1230.53125 613.253906 1224.933594 609.101562 C 1222.136719 607.039062 1218.984375 605.289062 1215.832031 603.28125 C 1212.695312 601.277344 1209.730469 599.015625 1206.972656 596.542969 C 1201.363281 591.699219 1196.488281 586.207031 1191.34375 581.019531 L 1192.433594 580.414062 C 1195.175781 592.546875 1198.691406 604.738281 1205.222656 615.203125 C 1208.484375 620.402344 1212.328125 625.21875 1217.019531 629.019531 C 1221.613281 632.902344 1227.210938 635.429688 1232.804688 638.355469 C 1238.386719 641.308594 1243.671875 644.242188 1249.476562 646.039062 C 1252.375 647 1255.386719 647.789062 1258.410156 648.679688 C 1261.433594 649.613281 1264.429688 650.613281 1267.378906 651.71875 C 1279.238281 656.066406 1290.457031 662.085938 1300.589844 669.445312 L 1300.390625 669.753906 C 1289.507812 663.582031 1278.105469 658.566406 1266.347656 654.710938 C 1260.457031 652.777344 1254.480469 651.488281 1248.335938 649.65625 C 1242.117188 647.875 1236.421875 644.65625 1231.035156 641.660156 C 1225.652344 638.664062 1219.789062 635.867188 1214.886719 631.53125 C 1210.023438 627.222656 1206.113281 622.027344 1203.144531 616.402344 C 1197.125 605.132812 1194.46875 592.742188 1191.175781 580.722656 L 1190.539062 578.394531 L 1192.261719 580.101562 C 1197.433594 585.257812 1202.902344 590.101562 1208.625 594.523438 C 1211.507812 596.699219 1214.460938 598.761719 1217.484375 600.65625 C 1220.511719 602.53125 1223.859375 604.167969 1226.867188 606.601562 C 1232.933594 611.488281 1236.746094 618.335938 1239.300781 625.234375 C 1241.933594 632.125 1243.882812 639.246094 1245.039062 646.492188 L 1244.703125 646.574219 " fill-opacity="1" fill-rule="nonzero"/></g><path fill="#fff1df" d="M 1251.582031 649.101562 C 1247.132812 648.425781 1243.257812 650.800781 1240.179688 653.636719 C 1237.070312 656.535156 1233.960938 660.0625 1230.234375 662.707031 C 1226.53125 665.40625 1222.402344 667.4375 1218.222656 669.160156 C 1214.023438 670.871094 1209.8125 672.414062 1205.488281 673.726562 L 1205.519531 672.464844 C 1210.84375 673.824219 1216.257812 674.867188 1221.527344 675.039062 C 1224.15625 675.066406 1226.769531 674.910156 1229.242188 674.261719 C 1231.730469 673.625 1234.105469 672.554688 1236.449219 671.363281 C 1241.125 668.894531 1245.503906 665.828125 1249.746094 662.382812 C 1253.96875 658.949219 1258.152344 655.417969 1262.125 651.589844 L 1262.40625 651.816406 C 1259.382812 656.492188 1255.695312 660.699219 1251.710938 664.597656 C 1247.765625 668.484375 1243.332031 672.183594 1238.230469 674.785156 C 1233.183594 677.511719 1227.039062 678.792969 1221.328125 678.144531 C 1215.578125 677.578125 1210.335938 675.503906 1205.136719 673.726562 L 1202.945312 672.976562 L 1205.164062 672.464844 C 1209.472656 671.480469 1213.683594 669.9375 1217.515625 667.707031 C 1221.371094 665.53125 1224.863281 662.832031 1228.285156 660.148438 C 1230.003906 658.792969 1231.6875 657.421875 1233.324219 655.984375 C 1234.9375 654.511719 1236.632812 652.988281 1238.46875 651.5625 C 1242.042969 648.753906 1247.316406 646.789062 1251.695312 648.761719 L 1251.582031 649.101562 " fill-opacity="1" fill-rule="nonzero"/><path fill="#fff1df" d="M 1239.359375 644.132812 C 1237.054688 641.730469 1235.785156 638.652344 1234.542969 635.785156 C 1233.339844 632.789062 1232.210938 630.316406 1230.402344 627.945312 C 1228.691406 625.515625 1226.585938 623.128906 1224.171875 621.121094 C 1221.738281 619.113281 1219.054688 617.417969 1216.46875 615.484375 C 1213.839844 613.59375 1211.410156 611.429688 1209.277344 609 C 1207.113281 606.613281 1205.078125 604.101562 1203.3125 601.433594 C 1199.824219 596.035156 1197.039062 590.296875 1194.890625 584.265625 L 1195.214844 584.085938 C 1199.34375 589 1202.875 594.210938 1206.492188 599.253906 C 1209.984375 604.414062 1213.671875 609.328125 1217.78125 614.015625 C 1219.875 616.335938 1222.277344 618.382812 1224.875 620.1875 C 1227.476562 621.996094 1230.316406 623.59375 1232.703125 626.007812 C 1235.121094 628.398438 1236.4375 631.882812 1237.1875 634.867188 C 1238.074219 637.914062 1238.554688 640.996094 1239.671875 643.933594 L 1239.359375 644.132812 " fill-opacity="1" fill-rule="nonzero"/><path fill="#fff1df" d="M 1266.675781 653.15625 C 1267.269531 648.242188 1268.824219 643.46875 1267.367188 639.203125 C 1266.179688 634.808594 1263.464844 630.769531 1261.433594 626.332031 C 1259.285156 621.953125 1257.207031 617.519531 1254.523438 613.4375 C 1251.878906 609.339844 1248.796875 605.539062 1245.660156 601.8125 L 1247.894531 600.878906 C 1248.839844 605.058594 1249.664062 609.273438 1250.425781 613.480469 C 1251.214844 617.691406 1251.976562 621.898438 1252.53125 626.136719 C 1253.164062 630.359375 1253.53125 634.640625 1254.027344 638.890625 C 1254.210938 640.96875 1254.464844 643.027344 1255.058594 644.992188 C 1255.609375 646.957031 1256.445312 648.878906 1258.039062 650.261719 L 1257.839844 650.570312 C 1255.792969 649.613281 1254.394531 647.605469 1253.421875 645.628906 C 1252.457031 643.597656 1251.820312 641.460938 1251.316406 639.3125 C 1250.480469 635.121094 1249.507812 630.941406 1248.796875 626.730469 C 1248.023438 622.519531 1247.457031 618.285156 1246.921875 614.03125 C 1246.339844 609.792969 1245.816406 605.539062 1245.4375 601.277344 L 1244.957031 596.007812 L 1247.667969 600.34375 C 1250.285156 604.507812 1252.753906 608.746094 1255.4375 612.84375 C 1258.082031 616.96875 1261.09375 620.855469 1263.835938 624.949219 C 1266.519531 629.003906 1269.132812 633.371094 1270.179688 638.566406 C 1270.746094 641.09375 1270.515625 643.976562 1269.742188 646.347656 C 1269.019531 648.761719 1268.003906 650.996094 1267.027344 653.257812 L 1266.675781 653.15625 " fill-opacity="1" fill-rule="nonzero"/><path fill="#fff1df" d="M 1261.191406 651.378906 C 1260.765625 647.125 1259.960938 643.367188 1259.171875 639.457031 C 1258.847656 637.550781 1258.550781 635.347656 1257.941406 633.371094 C 1257.335938 631.363281 1256.386719 629.496094 1255.355469 627.648438 C 1253.207031 624.003906 1251.539062 620.175781 1250.054688 616.277344 C 1248.730469 612.320312 1247.65625 608.265625 1247.261719 603.945312 L 1247.597656 603.820312 C 1250.167969 607.308594 1252.035156 611.066406 1253.660156 614.921875 C 1255.117188 618.820312 1256.414062 622.804688 1257.207031 626.953125 C 1257.644531 629.019531 1258.179688 631.050781 1259.046875 632.957031 C 1259.863281 634.890625 1261.21875 636.535156 1262.066406 638.625 C 1263.523438 642.722656 1263.636719 647.507812 1261.546875 651.464844 L 1261.191406 651.378906 " fill-opacity="1" fill-rule="nonzero"/><path fill="#fff1df" d="M 1339.519531 751.878906 C 1335.644531 743.066406 1329.5 735.804688 1322.984375 728.828125 C 1316.570312 721.75 1310.238281 714.574219 1302.339844 709.628906 C 1294.496094 704.601562 1285.496094 701.4375 1276.199219 699.628906 C 1266.882812 697.824219 1257.261719 697.554688 1247.753906 698.164062 L 1248.179688 697.242188 C 1256.089844 708.09375 1265.710938 717.667969 1276.394531 725.605469 C 1281.753906 729.5625 1287.386719 733.09375 1293.324219 736.03125 C 1299.230469 739.007812 1305.503906 741.257812 1311.847656 743.335938 C 1318.179688 745.394531 1324.695312 747.375 1331.082031 749.125 C 1337.511719 750.789062 1343.871094 751.808594 1350.355469 750.566406 C 1353.617188 750.042969 1356.882812 749.238281 1360.261719 748.65625 C 1363.640625 748.109375 1367.027344 747.726562 1370.433594 747.542969 C 1377.242188 747.121094 1384.054688 747.683594 1390.710938 748.855469 L 1390.652344 749.226562 C 1383.957031 748.601562 1377.230469 748.796875 1370.601562 749.550781 C 1363.921875 750.226562 1357.644531 752.105469 1350.90625 753.5625 C 1344.109375 755.117188 1336.734375 754.464844 1330.179688 752.671875 C 1323.5625 750.90625 1317.164062 749.027344 1310.664062 746.964844 C 1297.75 742.78125 1285.171875 736.554688 1274.644531 727.863281 C 1263.992188 719.292969 1255.199219 708.8125 1247.246094 697.921875 L 1246.609375 697.058594 L 1247.683594 697 C 1257.261719 696.480469 1266.898438 696.4375 1276.523438 697.625 C 1286.105469 698.824219 1295.726562 701.621094 1304.0625 706.929688 C 1312.441406 712.285156 1318.785156 719.859375 1324.90625 727.160156 C 1327.941406 730.863281 1331.011719 734.621094 1333.664062 738.671875 C 1336.25 742.769531 1338.414062 747.144531 1339.855469 751.753906 L 1339.519531 751.878906 " fill-opacity="1" fill-rule="nonzero"/><path fill="#fff1df" d="M 1272.609375 792.789062 C 1279.335938 788.449219 1286.1875 784.652344 1293.226562 781.105469 C 1296.785156 779.4375 1300.460938 777.910156 1303.910156 775.992188 C 1307.386719 774.101562 1310.4375 771.582031 1314.136719 769.707031 C 1317.910156 767.726562 1322.195312 767.460938 1325.878906 766.753906 C 1329.683594 766.046875 1333.398438 765.03125 1336.984375 763.785156 C 1344.234375 761.414062 1350.863281 757.503906 1356.40625 751.78125 L 1356.699219 751.992188 C 1352.996094 759.199219 1345.945312 764.578125 1338.289062 767.417969 C 1334.441406 768.855469 1330.402344 769.632812 1326.390625 770.113281 C 1322.292969 770.648438 1318.476562 770.382812 1314.886719 771.542969 C 1307.570312 774.042969 1301.320312 779.480469 1294.667969 783.746094 C 1287.839844 787.816406 1280.492188 791.046875 1272.761719 793.125 L 1272.609375 792.789062 " fill-opacity="1" fill-rule="nonzero"/><g clip-path="url(#id4)"><path fill="#fff1df" d="M 1309.914062 762.527344 C 1315.101562 760.609375 1320.550781 759.378906 1326.207031 759.28125 C 1329.015625 759.339844 1331.957031 759.691406 1334.65625 761.273438 C 1335.984375 762.0625 1337.257812 763.347656 1337.820312 765.046875 C 1338.371094 766.726562 1338.148438 768.433594 1337.792969 769.902344 C 1334.0625 781.035156 1325.894531 789.820312 1316.242188 795.738281 C 1306.5625 801.699219 1295.304688 804.722656 1284.183594 805.148438 C 1273.003906 805.640625 1262.011719 804.140625 1251.128906 802.148438 L 1248.855469 801.742188 L 1251.046875 800.824219 C 1256.402344 798.578125 1259.351562 793.226562 1262.945312 788.421875 C 1264.769531 786.007812 1266.859375 783.5625 1269.671875 781.839844 C 1272.507812 779.992188 1275.703125 779.480469 1278.375 778.621094 C 1283.8125 776.9375 1289 774.027344 1294.085938 770.949219 C 1299.21875 767.914062 1304.316406 764.660156 1309.914062 762.527344 Z M 1310.039062 762.867188 C 1304.457031 764.972656 1299.65625 768.558594 1294.910156 772.160156 C 1290.144531 775.710938 1285.257812 779.464844 1279.351562 781.570312 C 1276.394531 782.617188 1273.585938 783.152344 1271.351562 784.578125 C 1269.035156 785.949219 1267.082031 788.027344 1265.132812 790.203125 C 1263.214844 792.390625 1261.359375 794.792969 1259.226562 796.980469 C 1257.09375 799.183594 1254.496094 801.105469 1251.511719 802.136719 L 1251.425781 800.792969 C 1262.066406 803.40625 1273.191406 804.269531 1284 802.957031 C 1294.765625 801.601562 1305.320312 798.480469 1314.265625 792.601562 C 1323.210938 786.898438 1330.671875 778.519531 1334.8125 769.070312 C 1335.613281 766.738281 1335.363281 764.648438 1333.355469 763.164062 C 1331.417969 761.695312 1328.765625 760.976562 1326.121094 760.679688 C 1320.765625 760.128906 1315.183594 761.015625 1310.039062 762.867188 " fill-opacity="1" fill-rule="nonzero"/></g><path fill="#fff1df" d="M 1337.140625 750.847656 C 1330.277344 745.789062 1324.070312 740.171875 1317.855469 734.621094 C 1314.816406 731.738281 1311.804688 728.785156 1308.371094 726.367188 C 1304.953125 723.941406 1301.195312 722.046875 1297.28125 720.5625 C 1289.46875 717.625 1281.398438 715.125 1273.613281 711.804688 C 1266.109375 708.558594 1257.632812 705.707031 1251.1875 699.957031 L 1251.382812 699.644531 C 1259.003906 703.402344 1267.015625 705.152344 1275.066406 708.234375 C 1282.78125 711.539062 1290.699219 714.503906 1298.128906 718.769531 C 1301.847656 720.859375 1305.421875 723.179688 1309.023438 725.394531 C 1312.625 727.613281 1316.339844 729.757812 1319.777344 732.300781 C 1326.503906 737.542969 1332.296875 743.785156 1337.398438 750.59375 L 1337.140625 750.847656 " fill-opacity="1" fill-rule="nonzero"/><path fill="#fff1df" d="M 1358.75 667.027344 C 1366.183594 664.078125 1372.527344 659.046875 1377.457031 652.988281 C 1382.34375 646.871094 1386.148438 639.867188 1388.339844 632.378906 C 1389.398438 628.652344 1390.214844 624.894531 1390.03125 621.09375 C 1389.867188 617.277344 1389.085938 613.453125 1387.96875 609.679688 C 1385.65625 602.125 1382.585938 594.691406 1378.53125 587.84375 L 1379.5625 587.871094 C 1372.101562 598.664062 1365.035156 610.089844 1361.699219 622.675781 C 1360.03125 628.945312 1359.339844 635.332031 1359.851562 641.789062 C 1360.230469 648.242188 1361.347656 654.769531 1361.660156 661.519531 C 1361.839844 664.871094 1361.714844 668.398438 1361.148438 671.621094 L 1359.726562 681.464844 C 1358.949219 687.835938 1358.847656 694.332031 1359.652344 700.746094 C 1361.238281 713.570312 1365.941406 726.070312 1373.441406 736.917969 L 1373.160156 737.148438 C 1364.527344 727.101562 1358.605469 714.503906 1356.53125 701.195312 C 1355.398438 694.558594 1355.214844 687.738281 1355.976562 681.011719 C 1356.601562 674.460938 1358.265625 668.019531 1357.886719 661.648438 C 1357.746094 655.207031 1356.785156 648.652344 1356.53125 641.941406 C 1356.207031 635.21875 1357.191406 628.324219 1359.3125 621.953125 C 1363.640625 609.140625 1371.394531 598.226562 1378.546875 587.179688 L 1379.066406 586.359375 L 1379.59375 587.207031 C 1383.746094 594.097656 1387.488281 601.277344 1390.328125 608.890625 C 1391.742188 612.703125 1392.898438 616.726562 1393.097656 620.953125 C 1393.328125 625.160156 1392.675781 629.398438 1391.378906 633.3125 C 1388.804688 641.109375 1384.847656 648.511719 1379.28125 654.554688 C 1373.78125 660.601562 1366.71875 665.390625 1358.859375 667.382812 L 1358.75 667.027344 " fill-opacity="1" fill-rule="nonzero"/><path fill="#fff1df" d="M 1358.777344 691.5625 C 1359.4375 688.851562 1361.304688 686.664062 1363.269531 684.757812 C 1365.277344 682.863281 1367.578125 681.296875 1370.039062 679.941406 C 1374.96875 677.171875 1380.707031 676.179688 1386.21875 675.984375 C 1391.773438 675.800781 1397.199219 676.335938 1402.609375 677.085938 C 1408.019531 677.835938 1413.363281 679.023438 1418.5625 680.632812 L 1421.417969 681.507812 L 1418.789062 682.609375 C 1413.632812 684.769531 1408.53125 687.058594 1403.558594 689.597656 C 1398.523438 692.074219 1393.988281 695.308594 1388.605469 697.570312 C 1383.09375 699.855469 1376.992188 699.683594 1371.507812 698.949219 C 1368.824219 698.601562 1365.910156 698.628906 1363.101562 697.890625 C 1361.730469 697.496094 1360.246094 696.988281 1359.296875 695.773438 C 1358.367188 694.53125 1358.4375 692.917969 1358.777344 691.5625 Z M 1359.128906 691.648438 C 1358.847656 692.960938 1358.820312 694.460938 1359.695312 695.460938 C 1360.601562 696.410156 1361.941406 696.820312 1363.285156 696.949219 C 1365.984375 697.214844 1368.695312 696.761719 1371.59375 696.636719 C 1377.203125 696.363281 1382.542969 696.378906 1387.628906 694.757812 C 1390.214844 694.050781 1392.773438 693.007812 1395.359375 691.933594 C 1397.945312 690.871094 1400.53125 689.785156 1403.046875 688.570312 C 1408.078125 686.152344 1412.996094 683.484375 1417.855469 680.699219 L 1418.066406 682.679688 C 1412.785156 681.761719 1407.5 681.039062 1402.199219 680.503906 C 1396.914062 680.023438 1391.558594 679.769531 1386.316406 679.8125 C 1381.074219 679.882812 1375.929688 680.503906 1370.972656 682.070312 C 1368.484375 682.90625 1366.066406 684.035156 1363.890625 685.515625 C 1361.742188 687.027344 1359.835938 689.078125 1359.128906 691.648438 " fill-opacity="1" fill-rule="nonzero"/><path fill="#fff1df" d="M 1359.117188 671.675781 C 1357.589844 668.1875 1355.441406 665.136719 1353.152344 662.242188 C 1350.863281 659.328125 1348.289062 656.660156 1345.5625 654.246094 C 1342.824219 651.875 1339.898438 649.414062 1336.84375 647.167969 C 1333.804688 644.878906 1330.542969 642.917969 1327.296875 640.898438 L 1328.28125 640.277344 C 1329.1875 644.9375 1330.671875 649.441406 1332.054688 653.933594 C 1333.484375 658.410156 1334.980469 662.875 1337.15625 666.773438 C 1339.277344 670.769531 1342.246094 673.726562 1346.242188 676.335938 C 1350.058594 679.023438 1354.351562 681.59375 1357.421875 685.417969 L 1357.164062 685.671875 C 1353.324219 682.878906 1348.914062 681.226562 1344.6875 678.882812 C 1342.582031 677.707031 1340.394531 676.492188 1338.445312 674.710938 C 1336.546875 672.949219 1334.953125 670.871094 1333.78125 668.625 C 1331.394531 664.144531 1330.179688 659.402344 1329.074219 654.742188 C 1327.984375 650.035156 1327.519531 645.21875 1327.011719 640.460938 L 1326.871094 639.003906 L 1328.015625 639.839844 C 1331.066406 642.070312 1334.34375 644.003906 1337.734375 645.753906 C 1341.113281 647.5625 1344.574219 649.300781 1347.65625 651.800781 C 1350.707031 654.34375 1353.210938 657.410156 1355.328125 660.699219 C 1357.390625 663.992188 1359.046875 667.695312 1359.46875 671.578125 L 1359.117188 671.675781 " fill-opacity="1" fill-rule="nonzero"/><path fill="#fff1df" d="M 1412.910156 682.144531 C 1411.046875 683.765625 1408.53125 684.359375 1406.367188 684.839844 C 1404.136719 685.320312 1401.875 685.703125 1399.585938 685.773438 C 1397.296875 685.800781 1394.964844 685.546875 1392.675781 685.6875 C 1390.402344 685.828125 1388.167969 686.335938 1385.9375 686.929688 C 1381.5 688.273438 1376.90625 688.683594 1372.921875 689.96875 C 1368.808594 691.085938 1364.722656 692.960938 1360.230469 694.363281 L 1360.03125 694.050781 C 1363.328125 690.730469 1367.140625 687.894531 1371.765625 686.28125 C 1374.09375 685.507812 1376.511719 685.25 1378.8125 685.078125 C 1381.132812 684.882812 1383.390625 684.898438 1385.707031 684.953125 C 1388 684.996094 1390.289062 684.9375 1392.535156 684.53125 C 1394.78125 684.121094 1396.96875 683.328125 1399.207031 682.792969 C 1401.4375 682.296875 1403.710938 682.144531 1406 682.054688 C 1408.332031 681.957031 1410.464844 682.1875 1412.742188 681.816406 L 1412.910156 682.144531 " fill-opacity="1" fill-rule="nonzero"/><g clip-path="url(#id5)"><path fill="#fff1df" d="M 139.15625 579.464844 C 139.011719 579.347656 138.925781 579.175781 138.898438 578.972656 C 138.808594 578.308594 138.78125 577.644531 138.753906 576.980469 C 137.160156 569.558594 134.296875 562.425781 132.878906 554.976562 C 130.625 543.050781 131.664062 529.679688 135.308594 518.15625 C 136.523438 514.289062 137.59375 510.417969 139.128906 506.636719 C 139.359375 506.027344 139.648438 504.929688 139.996094 503.976562 C 140.285156 503.199219 140.660156 502.535156 141.066406 502.160156 C 141.328125 501.929688 141.558594 501.957031 141.730469 501.957031 C 141.964844 501.984375 142.136719 502.101562 142.28125 502.332031 C 142.339844 502.417969 142.398438 502.5625 142.398438 502.765625 C 142.398438 502.882812 142.367188 503.082031 142.367188 503.199219 C 142.339844 503.921875 142.308594 504.640625 142.28125 505.363281 C 142.195312 507.125 142.222656 508.917969 142.367188 510.679688 C 142.832031 515.789062 143.324219 521.074219 144.539062 526.070312 C 147.082031 536.667969 146.996094 548.015625 144.566406 558.644531 C 143.4375 563.523438 141.414062 567.941406 140.601562 572.679688 L 140.601562 572.707031 C 141.382812 578.25 141.90625 583.855469 142.050781 589.484375 C 142.164062 594.769531 141.933594 600.054688 141.183594 605.308594 C 140.921875 607.214844 140.574219 609.09375 140.167969 610.96875 C 141.703125 608.285156 143.324219 605.683594 145 603.203125 C 147.199219 599.96875 149.339844 596.445312 152.117188 593.644531 C 156.65625 589.050781 161.894531 585.761719 167.128906 582.121094 C 169.355469 580.589844 171.84375 579.4375 174.128906 577.992188 C 176.644531 576.402344 179.046875 574.554688 181.59375 572.96875 C 183.15625 571.984375 184.660156 570.945312 186.191406 569.933594 C 186.65625 569.617188 187.089844 569.328125 187.523438 568.980469 C 187.695312 568.835938 187.929688 568.492188 188.101562 568.347656 C 188.273438 568.203125 188.449219 568.117188 188.5625 568.085938 C 188.824219 568.027344 189.027344 568.085938 189.199219 568.230469 C 189.34375 568.347656 189.519531 568.519531 189.546875 568.867188 C 189.605469 569.414062 189.375 570.078125 189 570.773438 C 188.5625 571.550781 187.929688 572.390625 187.609375 572.910156 C 185.816406 576.058594 184.226562 579.320312 182.285156 582.382812 C 177.050781 590.613281 171.003906 598.265625 162.441406 603.316406 C 157.324219 606.351562 151.941406 608.140625 147.257812 610.769531 C 143.035156 613.136719 139.386719 616.195312 137.101562 621.539062 C 134.328125 629.105469 130.566406 635.890625 126.285156 642.792969 C 118.589844 655.183594 109.132812 667.917969 100.65625 686.425781 C 97.675781 692.925781 95.304688 699.539062 93.511719 706.207031 C 93.625 706.007812 93.742188 705.804688 93.859375 705.601562 C 97.414062 699.652344 103.289062 691.769531 109.042969 687.8125 C 115.871094 683.164062 126.398438 679.640625 133.949219 675.800781 C 137.015625 674.242188 139.679688 672.277344 142.339844 670.140625 C 142.917969 669.679688 143.667969 668.871094 144.449219 668.207031 C 145.058594 667.6875 145.695312 667.28125 146.273438 667.109375 C 146.648438 666.992188 146.878906 667.109375 147.023438 667.195312 C 147.257812 667.339844 147.402344 667.570312 147.371094 667.945312 C 147.371094 668.0625 147.316406 668.234375 147.199219 668.40625 C 147.054688 668.609375 146.734375 668.957031 146.621094 669.160156 C 146.246094 669.734375 145.867188 670.285156 145.519531 670.863281 C 144.449219 672.566406 143.613281 674.414062 142.65625 676.175781 C 142.28125 676.867188 141.875 677.5625 141.5 678.226562 C 141.585938 678.371094 141.585938 678.574219 141.441406 678.6875 C 141.210938 678.917969 141.007812 679.148438 140.777344 679.382812 C 139.15625 681.953125 137.421875 684.347656 135.484375 686.6875 C 135.570312 686.832031 135.570312 687.035156 135.425781 687.148438 C 134.441406 688.21875 133.429688 689.257812 132.359375 690.210938 C 132.011719 690.585938 131.636719 690.988281 131.261719 691.367188 C 124.230469 698.757812 115.898438 702.800781 106.875 707.21875 C 103.75 708.75 100.394531 710.105469 97.445312 711.957031 C 94.609375 713.746094 92.179688 715.96875 90.792969 719.289062 C 90.675781 719.578125 90.558594 719.898438 90.472656 720.183594 C 87.984375 736.328125 88.417969 752.847656 90.992188 769.449219 C 91.976562 755.964844 100.480469 741.382812 108.640625 731.738281 C 108.8125 731.535156 108.988281 731.332031 109.160156 731.128906 C 112.429688 727.261719 116.132812 724.054688 120.269531 721.136719 C 120.527344 720.9375 120.933594 720.53125 121.367188 720.214844 C 121.742188 719.925781 122.121094 719.664062 122.464844 719.578125 C 122.785156 719.492188 123.074219 719.492188 123.335938 719.609375 C 123.59375 719.722656 123.855469 719.925781 124.027344 720.300781 C 126.082031 725.035156 124.953125 732.023438 122.234375 739.1875 C 118.242188 749.757812 110.867188 760.699219 105.863281 765.175781 C 103.546875 767.257812 100.25 768.785156 97.414062 770.664062 C 95.101562 772.195312 93.105469 773.957031 92.351562 776.554688 C 95.796875 791.082031 104.617188 813.574219 113.296875 822.902344 C 113.730469 823.367188 113.703125 824.085938 113.238281 824.519531 C 112.863281 824.867188 112.34375 824.925781 111.90625 824.695312 C 111.851562 824.75 111.761719 824.75 111.707031 824.78125 C 111.792969 824.867188 111.851562 824.953125 111.9375 825.039062 C 112.082031 825.214844 112.050781 825.445312 111.90625 825.589844 C 111.734375 825.734375 111.503906 825.703125 111.359375 825.558594 C 110.375 824.460938 109.535156 823.277344 108.695312 822.066406 C 108.609375 821.949219 108.609375 821.777344 108.695312 821.660156 C 108.089844 820.851562 107.480469 820.015625 106.960938 819.179688 C 106.847656 819.003906 106.902344 818.746094 107.078125 818.660156 C 107.105469 818.660156 107.105469 818.628906 107.136719 818.628906 C 103.835938 813.546875 100.625 807.078125 97.847656 800.378906 C 97.675781 800.292969 97.53125 800.117188 97.472656 799.917969 C 97.15625 798.878906 96.835938 797.867188 96.460938 796.882812 C 96.34375 796.625 96.257812 796.335938 96.144531 796.074219 C 95.5625 794.632812 94.929688 793.21875 94.203125 791.832031 C 92.988281 791.136719 91.601562 790.761719 90.210938 790.472656 C 88.652344 790.15625 87.089844 789.894531 85.613281 789.40625 C 73.957031 785.507812 64.960938 780.828125 57.035156 771.097656 C 56.136719 769.96875 51.335938 763.070312 50.207031 759.804688 C 49.945312 759.082031 49.859375 758.476562 49.945312 758.101562 C 50.003906 757.753906 50.179688 757.523438 50.410156 757.351562 C 50.785156 757.0625 51.335938 756.917969 52.058594 756.917969 C 52.867188 756.917969 53.9375 757.148438 55.152344 757.496094 C 59.550781 758.824219 65.742188 762.117188 67.101562 762.925781 C 76.964844 768.84375 86.335938 776.527344 92.699219 786.140625 L 92.671875 786.085938 C 92.007812 783.976562 91.371094 781.839844 90.820312 779.671875 C 90.359375 777.910156 89.921875 776.121094 89.546875 774.332031 C 89.433594 773.753906 89.316406 773.175781 89.199219 772.570312 C 89.144531 772.28125 89.113281 771.992188 89.054688 771.675781 C 88.996094 771.328125 88.941406 770.980469 88.882812 770.636719 C 88.707031 769.539062 88.535156 768.441406 88.390625 767.371094 C 88.042969 764.859375 87.726562 762.316406 87.464844 759.777344 C 87.347656 758.535156 87.234375 757.292969 87.117188 756.082031 C 87.03125 755.734375 86.945312 755.386719 86.855469 755.011719 C 86.800781 755.011719 86.769531 754.984375 86.710938 754.953125 C 66.8125 745.769531 50.902344 728.964844 47.199219 706.902344 C 46.996094 705.632812 45.375 697.402344 44.972656 693.503906 C 44.855469 692.347656 44.882812 691.539062 45 691.222656 C 45.144531 690.816406 45.40625 690.644531 45.695312 690.585938 C 45.925781 690.527344 46.1875 690.527344 46.476562 690.703125 C 46.679688 690.816406 46.9375 691.019531 47.199219 691.277344 C 47.460938 691.539062 47.71875 691.855469 47.921875 692 C 49.28125 693.011719 50.554688 694.082031 52 694.917969 C 56.570312 697.574219 60.273438 700.289062 63.890625 704.160156 C 77.082031 718.308594 86.65625 748.339844 86.65625 748.339844 C 86.019531 730.957031 88.074219 713.804688 93.769531 697.199219 C 93.769531 697.171875 93.769531 697.171875 93.769531 697.140625 C 93.800781 691.972656 91.832031 686.949219 89.230469 682.125 C 86.566406 677.214844 83.269531 672.507812 80.667969 668.175781 C 76.097656 660.554688 73.175781 652.179688 72.21875 643.34375 C 71.699219 638.433594 71.816406 633.582031 72.277344 628.644531 C 72.421875 627.171875 72.597656 625.726562 72.769531 624.253906 C 72.828125 623.648438 72.914062 623.042969 73 622.433594 C 73 622.40625 72.972656 621.972656 72.972656 621.800781 C 73 621.566406 73.058594 621.425781 73.144531 621.308594 C 73.261719 621.136719 73.433594 621.019531 73.609375 620.992188 C 73.78125 620.933594 74.015625 620.933594 74.273438 621.078125 C 74.59375 621.28125 74.910156 621.683594 75.171875 622.234375 C 75.546875 623.097656 75.808594 624.398438 76.066406 624.945312 C 77.226562 627.460938 78.699219 630.058594 80.289062 632.339844 C 83.269531 636.554688 86.222656 640.164062 88.101562 645.046875 C 92.382812 656.25 91.863281 667.628906 92.902344 679.351562 C 93.308594 683.972656 94.492188 688.421875 95.332031 692.984375 C 96.316406 690.382812 97.414062 687.8125 98.574219 685.242188 C 104.707031 671.84375 111.359375 661.449219 117.492188 652.035156 C 117.492188 651.949219 117.492188 651.832031 117.519531 651.746094 C 119.199219 645.480469 118.214844 639.53125 116.246094 633.726562 C 114.25 627.804688 111.242188 622.058594 108.929688 616.371094 C 105.660156 608.3125 105.167969 597.945312 107.164062 589.570312 C 107.773438 587.03125 108.957031 582.0625 110.402344 579.78125 C 110.460938 579.582031 110.492188 579.40625 110.546875 579.203125 C 110.605469 579.003906 110.808594 578.886719 111.011719 578.914062 C 111.214844 578.972656 111.328125 579.175781 111.300781 579.378906 C 111.472656 579.40625 111.617188 579.523438 111.761719 579.695312 C 111.820312 579.78125 111.90625 579.925781 111.9375 580.15625 C 111.964844 580.359375 111.9375 580.765625 111.996094 580.964844 C 112.109375 581.574219 112.3125 582.148438 112.457031 582.726562 C 112.921875 584.460938 113.585938 586.046875 114.28125 587.695312 C 116.363281 592.660156 119.515625 597.023438 120.671875 602.363281 C 122.753906 612.125 120.269531 621.394531 119.574219 631.097656 C 119.167969 636.757812 120.296875 642.332031 120.125 647.960938 C 121.570312 645.738281 122.988281 643.542969 124.316406 641.378906 C 135.773438 622.953125 143.351562 605.339844 137.941406 570.542969 Z M 92.007812 788.828125 C 92.007812 788.828125 91.976562 788.855469 91.976562 788.855469 C 92.035156 788.886719 92.0625 788.886719 92.121094 788.914062 Z M 56.542969 767.6875 C 57.382812 768.902344 58.074219 769.855469 58.335938 770.230469 C 66.058594 779.703125 74.851562 784.234375 86.191406 788.046875 C 86.625 788.191406 87.089844 788.308594 87.550781 788.421875 C 86.855469 788.132812 86.164062 787.816406 85.496094 787.5 C 83.125 786.429688 80.753906 785.421875 78.46875 784.148438 C 71.902344 780.511719 65.074219 776.351562 59.609375 771.15625 C 58.480469 770.085938 57.527344 768.84375 56.542969 767.6875 Z M 54.632812 762.980469 C 56.339844 764.917969 58.25 766.707031 60.1875 768.382812 C 64.699219 772.308594 69.589844 775.628906 74.5625 778.980469 C 79.335938 782.1875 84.457031 785.796875 89.894531 788.046875 C 88.390625 787.238281 86.945312 786.199219 85.496094 785.363281 C 83.039062 783.917969 80.550781 782.5625 78.179688 780.945312 C 75.113281 778.835938 72.21875 776.382812 69.296875 774.101562 C 65.796875 771.386719 62.355469 768.554688 58.796875 765.898438 C 57.4375 764.945312 55.933594 764.050781 54.632812 762.980469 Z M 91.3125 786.863281 C 85.0625 777.566406 75.953125 770.144531 66.347656 764.367188 C 65.046875 763.589844 59.03125 760.382812 54.75 759.082031 C 53.734375 758.765625 52.808594 758.5625 52.117188 758.5625 C 52.058594 758.5625 52 758.5625 51.941406 758.5625 C 52.78125 758.796875 53.5625 759.226562 54.402344 759.515625 C 55.328125 759.835938 56.339844 760.007812 57.265625 760.382812 C 59.8125 761.453125 62.125 763.214844 64.46875 764.65625 C 66.261719 765.785156 68.140625 766.765625 69.847656 767.976562 C 72.742188 770.027344 75.375 772.425781 78.0625 774.734375 C 81.042969 777.304688 84.082031 779.816406 87.003906 782.503906 C 88.507812 783.917969 89.867188 785.421875 91.3125 786.863281 Z M 52.144531 759.429688 C 52.289062 759.605469 52.464844 759.777344 52.609375 759.921875 C 54.023438 760.789062 55.558594 761.480469 56.976562 762.347656 C 58.394531 763.214844 59.695312 764.253906 61.082031 765.175781 C 62.585938 766.1875 64.179688 767.082031 65.652344 768.121094 C 68.894531 770.433594 71.929688 773.089844 75.085938 775.515625 C 79.828125 779.152344 84.6875 782.707031 89.578125 786.171875 C 88.5625 785.132812 87.550781 784.0625 86.480469 783.082031 C 83.589844 780.425781 80.550781 777.910156 77.570312 775.34375 C 74.910156 773.058594 72.308594 770.664062 69.414062 768.640625 C 67.707031 767.429688 65.828125 766.449219 64.0625 765.351562 C 61.777344 763.90625 59.492188 762.171875 56.976562 761.132812 C 56.078125 760.757812 55.09375 760.585938 54.171875 760.269531 C 53.476562 760.035156 52.808594 759.691406 52.144531 759.429688 Z M 54.546875 761.886719 C 55.964844 763.15625 57.726562 764.167969 59.261719 765.292969 C 62.820312 767.949219 66.261719 770.777344 69.761719 773.492188 C 72.683594 775.773438 75.546875 778.230469 78.613281 780.308594 C 80.957031 781.898438 83.414062 783.253906 85.875 784.667969 C 86.625 785.101562 87.347656 785.59375 88.101562 786.054688 C 83.53125 782.820312 79.019531 779.5 74.59375 776.121094 C 71.4375 773.726562 68.429688 771.097656 65.164062 768.785156 C 63.6875 767.746094 62.125 766.851562 60.621094 765.839844 C 59.261719 764.917969 57.960938 763.878906 56.542969 763.039062 C 55.90625 762.636719 55.210938 762.261719 54.546875 761.886719 Z M 54.660156 764.195312 C 55.355469 765.089844 56.078125 765.984375 56.832031 766.824219 C 57.929688 768.09375 58.941406 769.449219 60.15625 770.605469 C 65.566406 775.746094 72.335938 779.875 78.84375 783.484375 C 80.4375 784.351562 82.054688 785.101562 83.675781 785.851562 C 80.347656 783.917969 77.136719 781.722656 74.101562 779.671875 C 69.125 776.324219 64.207031 772.945312 59.667969 769.019531 C 57.929688 767.488281 56.222656 765.898438 54.660156 764.195312 Z M 121.453125 723.132812 C 119.082031 726.335938 117.230469 730.148438 115.003906 733.324219 C 106.613281 745.339844 99.09375 758.128906 93.714844 771.789062 C 100.394531 761.683594 106.238281 750.824219 112.371094 740.398438 C 115.753906 734.652344 119.542969 729.457031 121.453125 723.132812 Z M 111.273438 731.304688 C 111.011719 731.59375 110.722656 731.910156 110.460938 732.226562 C 110.289062 732.429688 110.113281 732.632812 109.941406 732.832031 C 101.667969 742.59375 92.988281 757.554688 92.585938 771.125 C 93.828125 766.390625 95.882812 761.914062 97.648438 757.320312 C 101.089844 748.515625 105.253906 739.070312 111.273438 731.304688 Z M 122.785156 721.457031 C 122.726562 721.515625 122.699219 721.542969 122.640625 721.601562 C 120.933594 728.792969 116.738281 734.449219 113.007812 740.773438 C 107.511719 750.101562 102.273438 759.777344 96.433594 768.929688 C 104.851562 758.535156 113.296875 747.417969 118.273438 735.058594 C 120.125 730.609375 122.148438 726.25 122.785156 721.457031 Z M 120.527344 723.074219 C 109.566406 731.417969 103.199219 745.136719 98.398438 757.609375 C 96.953125 761.363281 95.304688 765.03125 94.058594 768.84375 C 99.382812 756.109375 106.5 744.152344 114.367188 732.863281 C 116.507812 729.800781 118.300781 726.191406 120.527344 723.074219 Z M 123.59375 728.214844 C 122.988281 730.957031 121.859375 733.730469 121.050781 736.066406 C 118.648438 743.230469 110.691406 756.109375 105.339844 761.769531 C 103.375 763.820312 101.378906 765.785156 99.441406 767.804688 C 101.4375 766.648438 103.433594 765.523438 104.964844 764.136719 C 109.824219 759.746094 117.027344 749.035156 120.933594 738.726562 C 122.292969 735.058594 123.277344 731.449219 123.59375 728.214844 Z M 123.191406 723.652344 C 122.320312 727.695312 120.585938 731.503906 119.023438 735.375 C 114.308594 747.042969 106.554688 757.640625 98.601562 767.515625 C 100.625 765.40625 102.710938 763.386719 104.734375 761.25 C 110.027344 755.675781 117.894531 742.941406 120.269531 735.835938 C 120.960938 733.785156 121.917969 731.449219 122.554688 729.050781 C 123.074219 727.230469 123.363281 725.382812 123.191406 723.652344 Z M 85.84375 752.875 C 85.84375 752.875 85.84375 752.902344 85.84375 752.902344 L 85.933594 752.933594 Z M 49.597656 710.511719 C 50.003906 712.242188 50.496094 713.917969 51.074219 715.59375 C 55.90625 725.066406 65.597656 734.769531 72.105469 741.4375 C 76.210938 745.625 79.421875 749.785156 84.832031 752.152344 C 74.449219 745.25 67.738281 734.539062 60.070312 724.980469 C 56.195312 720.214844 52.230469 715.796875 49.597656 710.511719 Z M 47.605469 699.972656 C 48.152344 703.117188 48.730469 706.09375 48.847656 706.785156 L 48.847656 706.816406 C 51.277344 713.628906 56.078125 718.800781 60.679688 724.488281 C 67.707031 733.210938 73.898438 742.914062 82.835938 749.757812 C 79.277344 746.148438 75.691406 742.480469 72.566406 738.550781 C 66.78125 731.273438 62.183594 723.101562 57.148438 715.277344 C 53.503906 709.617188 50.035156 705.429688 47.605469 699.972656 Z M 51.21875 696.363281 C 57.496094 703.636719 61.605469 712.589844 66.347656 720.9375 C 72.074219 731.042969 78.613281 740.398438 85.496094 749.726562 C 85.410156 749.378906 85.296875 749.035156 85.179688 748.660156 C 84.3125 747.792969 83.5 746.722656 82.75 745.539062 C 80.8125 742.480469 79.21875 738.753906 77.773438 736.5 C 73.058594 729.195312 68.488281 721.945312 64.46875 714.238281 C 61.632812 708.75 59.433594 703.378906 55.328125 698.929688 C 54.054688 698.066406 52.722656 697.226562 51.335938 696.417969 C 51.277344 696.390625 51.25 696.390625 51.21875 696.363281 Z M 47.921875 694.050781 C 58.074219 711.753906 67.332031 729.917969 80.957031 745.25 C 82.140625 746.578125 83.183594 748.023438 84.28125 749.410156 C 77.601562 740.3125 71.265625 731.160156 65.652344 721.3125 C 60.359375 711.984375 55.875 701.964844 48.269531 694.3125 C 48.152344 694.222656 48.039062 694.136719 47.921875 694.050781 Z M 52.898438 720.273438 C 58.074219 731.9375 67.042969 741.527344 77.917969 748.484375 C 75.71875 746.523438 73.753906 744.269531 71.527344 741.988281 C 65.972656 736.269531 58.105469 728.386719 52.898438 720.273438 Z M 46.589844 693.300781 C 46.648438 693.820312 46.707031 694.425781 46.792969 695.121094 C 46.851562 695.464844 46.878906 695.8125 46.9375 696.160156 C 49.28125 703.464844 53.390625 708.085938 57.757812 714.871094 C 62.761719 722.667969 67.359375 730.8125 73.117188 738.089844 C 75.921875 741.613281 79.105469 744.90625 82.285156 748.167969 C 81.652344 747.359375 81.015625 746.550781 80.320312 745.769531 C 65.972656 729.542969 56.425781 710.164062 45.550781 691.511719 Z M 57.871094 700.808594 C 60.851562 704.792969 62.789062 709.296875 65.164062 713.917969 C 69.152344 721.628906 73.722656 728.847656 78.410156 736.125 C 79.855469 738.378906 81.449219 742.105469 83.386719 745.164062 C 83.734375 745.714844 84.082031 746.234375 84.457031 746.722656 C 82.140625 741.496094 79.25 736.558594 76.675781 731.476562 C 71.613281 721.339844 66.695312 711.292969 59.753906 702.367188 C 59.144531 701.820312 58.507812 701.300781 57.871094 700.808594 Z M 63.253906 705.804688 C 68.777344 713.746094 73 722.378906 77.398438 731.074219 C 79.25 734.710938 81.246094 738.292969 83.097656 741.960938 C 78.671875 728.792969 72.421875 715.824219 63.253906 705.804688 Z M 141.125 674.472656 C 136.089844 678.542969 129.84375 680.910156 124.347656 684.261719 C 114.136719 690.441406 104.964844 698.265625 97.503906 707.59375 C 96.085938 709.386719 94.320312 711.089844 92.84375 712.9375 C 92.789062 713.050781 92.699219 713.140625 92.644531 713.253906 C 92.902344 712.964844 93.164062 712.707031 93.421875 712.417969 C 95.363281 710.308594 97.386719 708.316406 99.410156 706.296875 C 107.453125 698.324219 116.132812 691.511719 125.621094 685.300781 C 130.710938 681.953125 136.8125 678.976562 141.125 674.472656 Z M 114.28125 686.542969 C 112.746094 687.351562 111.300781 688.21875 110 689.085938 C 104.414062 692.925781 98.71875 700.578125 95.246094 706.382812 C 94.378906 707.824219 93.511719 709.328125 92.699219 710.914062 C 94.292969 708.375 96.144531 705.976562 97.878906 703.609375 C 102.449219 697.457031 107.945312 691.308594 114.28125 686.542969 Z M 134.472656 685.617188 C 132.417969 687.46875 130.277344 689.230469 128.078125 690.875 C 122.609375 695.003906 116.332031 698.324219 110.492188 701.878906 C 106.847656 704.101562 103.316406 706.382812 99.902344 708.953125 C 101.785156 707.941406 103.664062 706.929688 105.484375 705.804688 C 109.882812 703.0625 114.078125 699.972656 118.5625 697.371094 C 121.597656 695.609375 124.925781 694.398438 127.992188 692.605469 C 128.773438 691.886719 129.523438 691.164062 130.277344 690.355469 C 131.75 688.796875 133.167969 687.207031 134.472656 685.617188 Z M 139.359375 678.890625 C 138.664062 679.671875 137.941406 680.421875 137.191406 681.054688 C 134.960938 683.019531 132.417969 684.695312 130.046875 686.484375 C 123.015625 691.855469 115.699219 696.738281 108.320312 701.617188 C 105.429688 703.550781 102.710938 705.601562 100.078125 707.796875 C 103.316406 705.429688 106.613281 703.292969 110.058594 701.183594 C 115.898438 697.632812 122.121094 694.3125 127.585938 690.210938 C 131 687.640625 134.269531 684.808594 137.363281 681.808594 C 138.058594 680.882812 138.722656 679.902344 139.359375 678.890625 Z M 140.835938 675.828125 C 136.554688 679.902344 130.855469 682.761719 126.054688 685.90625 C 116.625 692.085938 107.972656 698.84375 99.988281 706.816406 C 99.757812 707.046875 99.527344 707.277344 99.296875 707.480469 C 102.042969 705.167969 104.878906 703.003906 107.917969 700.980469 C 115.261719 696.074219 122.582031 691.222656 129.609375 685.878906 C 131.953125 684.089844 134.5 682.441406 136.699219 680.480469 C 138.144531 679.179688 139.5625 677.5625 140.835938 675.828125 Z M 124.433594 681.835938 C 122.699219 682.585938 120.933594 683.335938 119.226562 684.117188 C 111.039062 689.085938 104.097656 696.59375 98.574219 704.042969 C 98.195312 704.5625 97.820312 705.054688 97.414062 705.574219 C 97.648438 705.285156 97.847656 705.023438 98.082031 704.765625 C 105.285156 695.8125 114.539062 687.898438 124.433594 681.835938 Z M 125.300781 694.886719 C 123.160156 695.929688 120.992188 696.851562 118.9375 698.035156 C 115.207031 700.171875 111.675781 702.6875 108.089844 705.023438 C 114.25 701.992188 120.066406 699.046875 125.300781 694.886719 Z M 142.945312 671.757812 C 141.09375 673.230469 139.214844 674.617188 137.21875 675.828125 C 137.21875 675.828125 137.246094 675.859375 137.246094 675.859375 C 137.335938 676.058594 137.277344 676.292969 137.074219 676.378906 C 133.546875 678.167969 129.871094 679.496094 126.457031 681.519531 C 118.675781 686.082031 111.242188 691.855469 104.820312 698.382812 C 110.605469 692.722656 117.058594 687.757812 124 683.570312 C 130.101562 679.871094 137.160156 677.359375 142.398438 672.335938 C 142.570312 672.160156 142.742188 671.960938 142.945312 671.757812 Z M 74.707031 625.8125 C 74.882812 627.199219 75.113281 628.585938 75.519531 629.914062 C 76.097656 631.789062 77.136719 633.464844 77.601562 635.371094 C 80.261719 646.519531 83.066406 657.753906 86.65625 668.640625 C 87.726562 671.929688 88.996094 675.136719 90.300781 678.339844 C 90.472656 678.773438 90.675781 679.238281 90.878906 679.671875 C 90.125 677.476562 89.808594 675.136719 89.257812 672.914062 C 88.101562 668.207031 86.855469 663.554688 85.699219 658.847656 C 83.792969 651.082031 81.882812 643.199219 79.191406 635.660156 C 78.148438 632.742188 76.589844 629.914062 75.316406 627.082031 C 75.085938 626.621094 74.910156 626.21875 74.707031 625.8125 Z M 79.21875 633.667969 C 79.453125 634.246094 79.683594 634.792969 79.886719 635.371094 C 82.578125 642.9375 84.484375 650.851562 86.421875 658.648438 C 87.582031 663.355469 88.824219 668.003906 89.980469 672.710938 C 90.269531 673.835938 90.472656 675.019531 90.734375 676.175781 C 90.414062 673.867188 90.15625 671.554688 89.722656 669.273438 C 88.621094 663.527344 87.03125 657.867188 85.875 652.121094 C 84.917969 647.355469 84.3125 641.667969 81.851562 637.304688 C 80.984375 636.09375 80.117188 634.910156 79.21875 633.667969 Z M 74.042969 644.816406 C 75.113281 652.902344 77.890625 660.554688 82.085938 667.570312 C 83.675781 670.226562 85.496094 672.96875 87.292969 675.828125 C 86.566406 674.210938 85.84375 672.59375 85.09375 671.007812 C 82.632812 665.980469 80.261719 660.957031 78.0625 655.789062 C 76.5 652.179688 75.085938 648.539062 74.042969 644.816406 Z M 74.101562 627.113281 L 74.042969 627.574219 C 74.015625 628.816406 74.042969 630.085938 74.160156 631.328125 C 74.449219 634.214844 75.375 636.84375 76.066406 639.617188 C 76.992188 643.167969 77.746094 646.808594 78.875 650.332031 C 79.828125 653.277344 81.101562 656.078125 82.085938 659.023438 C 83.675781 663.84375 85.46875 668.582031 87.4375 673.230469 C 86.886719 671.785156 86.394531 670.34375 85.902344 668.871094 C 82.316406 657.953125 79.511719 646.691406 76.820312 635.546875 C 76.355469 633.667969 75.316406 631.992188 74.765625 630.144531 C 74.449219 629.132812 74.246094 628.09375 74.101562 627.054688 Z M 84.195312 640.800781 C 85.382812 644.4375 85.933594 648.425781 86.625 651.949219 C 87.78125 657.695312 89.375 663.355469 90.472656 669.101562 C 90.617188 669.824219 90.734375 670.542969 90.847656 671.296875 C 90.386719 662.660156 89.921875 654.199219 86.710938 645.824219 C 86.019531 644.007812 85.152344 642.359375 84.195312 640.800781 Z M 73.609375 633.0625 C 73.523438 635.113281 73.492188 637.164062 73.550781 639.210938 C 74.476562 644.84375 76.472656 650.1875 78.757812 655.5 C 80.582031 659.746094 82.488281 663.875 84.484375 668.03125 C 83.355469 665.144531 82.316406 662.226562 81.332031 659.253906 C 80.347656 656.335938 79.074219 653.507812 78.121094 650.5625 C 76.992188 647.039062 76.210938 643.398438 75.316406 639.820312 C 74.738281 637.539062 74.015625 635.34375 73.609375 633.0625 Z M 107.683594 597.136719 C 107.25 603.519531 108.148438 610.335938 110.433594 615.964844 C 112.199219 620.328125 114.367188 624.714844 116.1875 629.191406 C 116.015625 628.5 115.8125 627.835938 115.582031 627.199219 C 112.3125 618.101562 108.464844 608.457031 107.769531 598.726562 C 107.742188 598.207031 107.714844 597.65625 107.683594 597.136719 Z M 116.476562 595.636719 C 116.882812 598.234375 116.855469 600.921875 116.914062 603.605469 C 116.96875 607.1875 117.257812 610.824219 117.085938 614.40625 C 117 616.398438 116.855469 618.449219 116.796875 620.472656 C 117.113281 622.839844 117.433594 625.234375 117.78125 627.605469 C 117.78125 627.574219 117.78125 627.515625 117.78125 627.488281 C 117.75 623.472656 118.359375 619.546875 118.617188 615.5625 C 119.023438 609.757812 118.964844 603.691406 117.605469 598.003906 C 117.230469 597.195312 116.855469 596.414062 116.476562 595.636719 Z M 119.226562 602.941406 C 119.71875 607.160156 119.660156 611.433594 119.371094 615.589844 C 119.109375 619.257812 118.589844 622.898438 118.53125 626.5625 C 119.457031 618.679688 120.933594 610.96875 119.226562 602.941406 Z M 109.332031 587.636719 C 109.132812 588.417969 108.957031 589.109375 108.8125 589.746094 C 108.464844 592.691406 108.320312 595.636719 108.523438 598.695312 C 109.21875 608.226562 112.921875 617.640625 116.160156 626.5625 C 116.101562 626.101562 116.074219 625.640625 116.042969 625.148438 C 115.609375 623.242188 115.117188 621.335938 114.65625 619.429688 C 113.265625 613.859375 111.328125 608.34375 110.347656 602.652344 C 109.535156 597.714844 109.042969 592.632812 109.332031 587.636719 Z M 110.605469 583.363281 L 110.578125 583.449219 C 109.59375 589.746094 110.058594 596.242188 111.128906 602.507812 C 112.082031 608.167969 114.019531 613.65625 115.40625 619.230469 C 115.582031 619.980469 115.785156 620.730469 115.988281 621.480469 C 115.988281 621.164062 115.988281 620.847656 116.015625 620.527344 C 115.003906 613.050781 114.046875 605.570312 112.949219 598.121094 C 112.601562 595.808594 112.34375 593.46875 111.9375 591.160156 C 111.445312 588.589844 110.835938 585.960938 110.636719 583.304688 Z M 111.589844 585.097656 C 111.878906 587.089844 112.3125 589.050781 112.660156 591.015625 C 113.09375 593.324219 113.355469 595.664062 113.703125 598.003906 C 114.597656 604.039062 115.378906 610.105469 116.1875 616.140625 C 116.21875 615.53125 116.246094 614.957031 116.277344 614.347656 C 116.449219 610.796875 116.160156 607.160156 116.101562 603.578125 C 116.042969 599.9375 116.132812 596.242188 115.003906 592.835938 C 114.25 591.390625 113.527344 589.945312 112.890625 588.445312 C 112.457031 587.347656 111.996094 586.25 111.589844 585.097656 Z M 142.136719 611.980469 C 142.078125 612.039062 142.050781 612.066406 141.992188 612.125 C 141.761719 612.414062 141.527344 612.730469 141.296875 613.019531 C 141.269531 613.050781 141.238281 613.078125 141.210938 613.105469 C 141.183594 613.164062 141.152344 613.222656 141.125 613.25 C 141.527344 612.875 141.933594 612.53125 142.367188 612.183594 C 142.308594 612.152344 142.253906 612.125 142.195312 612.097656 C 142.164062 612.066406 142.136719 612.039062 142.136719 611.980469 Z M 164.351562 585.960938 C 160.449219 588.617188 156.65625 591.332031 153.273438 594.742188 C 150.582031 597.484375 148.472656 600.921875 146.332031 604.066406 C 144.972656 606.089844 143.640625 608.199219 142.367188 610.335938 L 142.453125 610.21875 C 143.699219 608.660156 145 607.160156 146.300781 605.65625 C 147.113281 604.675781 147.949219 603.691406 148.761719 602.710938 C 152.636719 598.03125 156.109375 593.441406 160.5625 589.28125 C 161.777344 588.1875 163.050781 587.058594 164.351562 585.960938 Z M 182.921875 578.394531 C 178.0625 585.5 171.875 591.59375 164.902344 596.703125 C 160.5625 599.851562 156.078125 602.941406 151.625 605.945312 C 150.089844 606.957031 148.53125 607.996094 147.082031 609.152344 C 147.863281 608.71875 148.675781 608.3125 149.484375 607.9375 C 150.234375 607.476562 150.988281 607.015625 151.742188 606.550781 C 157.726562 603.058594 163.367188 598.957031 168.75 594.625 C 171.640625 592.285156 174.796875 590.0625 177.226562 587.234375 C 178.554688 585.382812 179.828125 583.480469 181.070312 581.574219 C 181.707031 580.503906 182.316406 579.464844 182.921875 578.394531 Z M 180.089844 580.964844 C 174.476562 586.972656 167.621094 591.796875 160.851562 596.675781 C 156.746094 599.621094 152.867188 603.058594 149.109375 606.4375 C 148.53125 606.957031 147.949219 607.445312 147.34375 607.96875 C 148.585938 607.042969 149.890625 606.175781 151.191406 605.308594 C 155.644531 602.335938 160.128906 599.246094 164.46875 596.097656 C 170.339844 591.765625 175.664062 586.710938 180.089844 580.964844 Z M 183.648438 575.449219 C 181.765625 577.15625 179.800781 578.714844 177.859375 580.359375 C 172.828125 584.632812 167.9375 588.964844 162.761719 593.066406 C 159.203125 595.894531 155.558594 598.8125 152.289062 601.960938 C 150.554688 603.636719 148.875 605.339844 147.167969 607.042969 C 147.632812 606.636719 148.09375 606.234375 148.558594 605.828125 C 152.347656 602.453125 156.222656 598.984375 160.390625 596.011719 C 168.894531 589.945312 177.542969 583.910156 183.648438 575.449219 Z M 184.949219 573.167969 C 183.066406 574.238281 181.160156 575.277344 179.367188 576.546875 C 173.464844 580.820312 168.199219 585.875 162.761719 590.699219 C 157.265625 595.550781 151.828125 600.660156 146.9375 606.175781 L 146.851562 606.292969 C 148.472656 604.644531 150.121094 603 151.769531 601.382812 C 155.066406 598.207031 158.742188 595.289062 162.296875 592.429688 C 167.476562 588.328125 172.335938 584 177.371094 579.722656 C 179.914062 577.617188 182.578125 575.539062 184.949219 573.167969 Z M 173.78125 591.5625 C 172.277344 592.804688 170.714844 593.988281 169.210938 595.203125 C 164.785156 598.753906 160.1875 602.164062 155.386719 605.195312 C 157.496094 604.242188 159.636719 603.203125 161.71875 601.960938 C 166.433594 599.1875 170.339844 595.605469 173.78125 591.5625 Z M 173.320312 580.300781 C 172.65625 580.675781 171.988281 581.054688 171.324219 581.429688 C 167.851562 584.054688 164.207031 586.972656 161.113281 589.859375 C 158.308594 592.488281 155.875 595.320312 153.503906 598.207031 C 156.339844 595.433594 159.289062 592.75 162.269531 590.121094 C 165.945312 586.855469 169.558594 583.480469 173.320312 580.300781 Z M 144.25 532.796875 C 144.277344 536.667969 144.046875 540.566406 143.582031 544.4375 C 142.890625 550.296875 141.933594 556.015625 140.863281 561.878906 C 140.402344 564.390625 139.9375 566.960938 139.765625 569.53125 C 140.75 565.835938 142.195312 562.195312 143.089844 558.269531 C 145 550.039062 145.433594 541.289062 144.25 532.796875 Z M 134.472656 528.121094 C 132.910156 536.898438 132.792969 546.167969 134.414062 554.6875 C 135.195312 558.757812 136.378906 562.714844 137.566406 566.699219 C 136.988281 562.945312 136.523438 559.191406 136.0625 555.4375 C 134.960938 546.253906 133.949219 537.214844 134.472656 528.121094 Z M 135.976562 521.507812 C 135.976562 521.535156 135.945312 521.566406 135.945312 521.59375 C 134.238281 532.914062 135.484375 544.003906 136.84375 555.351562 C 137.277344 558.960938 137.738281 562.542969 138.289062 566.152344 C 138.316406 565.746094 138.375 565.34375 138.433594 564.96875 C 138.058594 561.589844 137.507812 558.183594 137.191406 554.832031 C 136.410156 546.628906 136.148438 538.429688 135.945312 530.171875 C 135.859375 527.023438 135.800781 524.25 135.976562 521.507812 Z M 142.976562 526.097656 C 143.003906 533.460938 142.339844 540.828125 141.269531 548.015625 C 140.691406 551.914062 140.71875 556.277344 140.054688 560.175781 C 139.878906 561.128906 139.707031 562.050781 139.53125 562.945312 C 139.53125 563.582031 139.53125 564.21875 139.5625 564.851562 C 139.734375 563.8125 139.910156 562.800781 140.113281 561.761719 C 141.183594 555.902344 142.136719 550.183594 142.832031 544.347656 C 143.523438 538.601562 143.699219 532.886719 143.207031 527.109375 C 143.148438 526.878906 143.121094 526.675781 143.0625 526.472656 C 143.035156 526.359375 143.003906 526.214844 142.976562 526.097656 Z M 140.546875 507.5 C 138.203125 518.128906 138.085938 529.304688 138.316406 540.074219 C 138.433594 545.996094 138.519531 551.828125 138.867188 557.71875 C 138.867188 557.375 138.898438 557.054688 138.898438 556.707031 C 138.984375 551.28125 139.15625 545.9375 139.476562 540.507812 C 140.082031 530.660156 140.34375 517.492188 140.546875 507.5 Z M 141.183594 514.34375 C 140.980469 523.039062 140.71875 532.828125 140.257812 540.566406 C 139.9375 545.964844 139.765625 551.308594 139.679688 556.707031 C 139.679688 556.941406 139.679688 557.171875 139.679688 557.402344 C 139.996094 554.253906 140.082031 550.90625 140.546875 547.871094 C 141.820312 539.265625 142.511719 530.316406 142.109375 521.507812 C 141.703125 519.167969 141.414062 516.742188 141.183594 514.34375 Z M 138.953125 511.804688 C 138.316406 513.769531 137.738281 515.730469 137.101562 517.695312 C 136.554688 521.824219 136.613281 525.578125 136.726562 530.113281 C 136.929688 538.199219 137.160156 546.253906 137.914062 554.285156 C 137.710938 549.546875 137.625 544.839844 137.539062 540.074219 C 137.363281 530.777344 137.421875 521.101562 138.953125 511.804688 Z M 138.953125 511.804688 " fill-opacity="1" fill-rule="evenodd"/></g></svg>