<svg xmlns="http://www.w3.org/2000/svg" xmlns:xlink="http://www.w3.org/1999/xlink" width="500" zoomAndPan="magnify" viewBox="0 0 375 374.999991" height="500" preserveAspectRatio="xMidYMid meet" version="1.0"><defs><clipPath id="id1"><path d="M 30.109375 30.109375 L 345.109375 30.109375 L 345.109375 345.109375 L 30.109375 345.109375 Z M 30.109375 30.109375 " clip-rule="nonzero"/></clipPath></defs><rect x="-37.5" width="450" fill="#ffffff" y="-37.499999" height="449.999989" fill-opacity="1"/><rect x="-37.5" width="450" fill="#ffffff" y="-37.499999" height="449.999989" fill-opacity="1"/><rect x="-37.5" width="450" fill="#ffffff" y="-37.499999" height="449.999989" fill-opacity="1"/><g clip-path="url(#id1)"><path fill="#f987a8" d="M 187.539062 58.507812 C 229.570312 58.507812 234.542969 58.648438 251.175781 59.40625 C 266.496094 60.097656 274.847656 62.652344 280.4375 64.859375 C 287.753906 67.6875 293 71.140625 298.519531 76.660156 C 304.042969 82.183594 307.425781 87.429688 310.324219 94.746094 C 312.464844 100.265625 315.015625 108.617188 315.777344 124.007812 C 316.535156 140.640625 316.671875 145.609375 316.671875 187.644531 C 316.671875 229.675781 316.535156 234.644531 315.777344 251.277344 C 315.085938 266.601562 312.53125 274.953125 310.324219 280.542969 C 307.492188 287.859375 304.042969 293.101562 298.519531 298.625 C 293 304.144531 287.753906 307.527344 280.4375 310.425781 C 274.917969 312.566406 266.566406 315.121094 251.175781 315.878906 C 234.542969 316.636719 229.570312 316.777344 187.539062 316.777344 C 145.507812 316.777344 140.539062 316.636719 123.90625 315.878906 C 108.582031 315.1875 100.230469 312.636719 94.640625 310.425781 C 87.324219 307.597656 82.078125 304.144531 76.558594 298.625 C 71.035156 293.101562 67.65625 287.859375 64.757812 280.542969 C 62.617188 275.019531 60.0625 266.667969 59.304688 251.277344 C 58.542969 234.644531 58.40625 229.675781 58.40625 187.644531 C 58.40625 145.609375 58.542969 140.640625 59.304688 124.007812 C 59.992188 108.6875 62.546875 100.335938 64.757812 94.746094 C 67.585938 87.429688 71.035156 82.183594 76.558594 76.660156 C 82.078125 71.140625 87.324219 67.757812 94.640625 64.859375 C 100.164062 62.71875 108.511719 60.167969 123.90625 59.40625 C 140.539062 58.648438 145.507812 58.507812 187.539062 58.507812 M 187.539062 30.144531 C 144.75 30.144531 139.433594 30.351562 122.59375 31.109375 C 105.820312 31.867188 94.363281 34.558594 84.355469 38.425781 C 74.003906 42.429688 65.238281 47.8125 56.472656 56.578125 C 47.777344 65.34375 42.394531 74.109375 38.390625 84.460938 C 34.527344 94.46875 31.835938 105.925781 31.074219 122.695312 C 30.316406 139.46875 30.109375 144.851562 30.109375 187.574219 C 30.109375 230.367188 30.316406 235.679688 31.074219 252.519531 C 31.835938 269.292969 34.527344 280.75 38.390625 290.757812 C 42.394531 301.109375 47.777344 309.875 56.542969 318.640625 C 65.308594 327.40625 74.074219 332.789062 84.425781 336.792969 C 94.433594 340.65625 105.890625 343.347656 122.664062 344.109375 C 139.433594 344.867188 144.816406 345.074219 187.609375 345.074219 C 230.398438 345.074219 235.714844 344.867188 252.554688 344.109375 C 269.328125 343.347656 280.785156 340.65625 290.792969 336.792969 C 301.144531 332.789062 309.910156 327.40625 318.675781 318.640625 C 327.441406 309.875 332.824219 301.109375 336.828125 290.757812 C 340.691406 280.75 343.382812 269.292969 344.140625 252.519531 C 344.902344 235.75 345.109375 230.367188 345.109375 187.574219 C 345.109375 144.78125 344.902344 139.46875 344.140625 122.628906 C 343.382812 105.855469 340.691406 94.398438 336.828125 84.390625 C 332.824219 74.039062 327.441406 65.273438 318.675781 56.507812 C 309.910156 47.742188 301.144531 42.359375 290.792969 38.355469 C 280.785156 34.492188 269.328125 31.800781 252.554688 31.039062 C 235.714844 30.351562 230.332031 30.144531 187.539062 30.144531 " fill-opacity="1" fill-rule="nonzero"/></g><path fill="#f987a8" d="M 187.539062 106.753906 C 142.882812 106.753906 106.71875 142.917969 106.71875 187.574219 C 106.71875 232.230469 142.953125 268.464844 187.609375 268.464844 C 232.261719 268.464844 268.5 232.296875 268.5 187.574219 C 268.429688 142.917969 232.195312 106.753906 187.539062 106.753906 M 187.539062 240.097656 C 158.550781 240.097656 135.085938 216.632812 135.085938 187.644531 C 135.085938 158.65625 158.550781 135.1875 187.539062 135.1875 C 216.527344 135.1875 239.992188 158.65625 239.992188 187.644531 C 240.0625 216.5625 216.527344 240.097656 187.539062 240.097656 " fill-opacity="1" fill-rule="nonzero"/><path fill="#f987a8" d="M 290.515625 103.578125 C 290.515625 114 282.027344 122.488281 271.605469 122.488281 C 261.183594 122.488281 252.691406 114 252.691406 103.578125 C 252.691406 93.15625 261.183594 84.667969 271.605469 84.667969 C 282.027344 84.667969 290.515625 93.089844 290.515625 103.578125 " fill-opacity="1" fill-rule="nonzero"/></svg>